<?xml version="1.0" encoding="iso-8859-1"?>
<!-- Generator: Adobe Illustrator 19.0.0, SVG Export Plug-In . SVG Version: 6.00 Build 0)  -->
<svg version="1.1" id="Capa_1" xmlns="http://www.w3.org/2000/svg" xmlns:xlink="http://www.w3.org/1999/xlink" x="0px" y="0px"
	 viewBox="0 0 479.992 479.992" style="enable-background:new 0 0 479.992 479.992;" xml:space="preserve">
<g>
	<g>
		<path d="M190.264,347.088l-56-72c-2.968-3.49-8.204-3.914-11.694-0.946c-0.34,0.289-0.657,0.606-0.946,0.946l-56,72
			c-2.713,3.487-2.085,8.514,1.402,11.226c1.406,1.094,3.136,1.687,4.918,1.686h24v64c0,4.418,3.582,8,8,8h48c4.418,0,8-3.582,8-8
			v-64h24c4.418,0.003,8.003-3.576,8.006-7.994C191.951,350.224,191.358,348.494,190.264,347.088z M151.944,344
			c-4.418,0-8,3.582-8,8v64h-32v-64c0-4.418-3.582-8-8-8H88.296l39.648-50.968L167.592,344H151.944z"/>
	</g>
</g>
<g>
	<g>
		<path d="M471.944,120h-40V64c0-4.418-3.582-8-8-8h-240V8c0-4.418-3.582-8-8-8h-128c-4.418,0-8,3.582-8,8v251.288
			c-51.256,48.601-53.409,129.552-4.807,180.808c48.601,51.256,129.552,53.409,180.808,4.807
			c15.382-14.585,26.897-32.765,33.511-52.904h158.488c39.744-0.049,71.952-32.256,72-72V128
			C479.944,123.582,476.362,120,471.944,120z M55.944,16h112v48c0,4.418,3.582,8,8,8h240v48h-312c-4.418,0-8,3.582-8,8v100.216
			c-14.276,3.654-27.81,9.758-40,18.04V16z M127.944,464c-61.856,0-112-50.144-112-112s50.144-112,112-112s112,50.144,112,112
			C239.878,413.828,189.772,463.934,127.944,464z M463.944,320c-0.035,30.913-25.087,55.965-56,56H253.608
			c13.654-68.956-31.177-135.925-100.133-149.579c-13.678-2.708-27.709-3.151-41.531-1.309V136h352V320z"/>
	</g>
</g>
<g>
	<g>
		<rect x="215.944" y="152" width="16" height="16"/>
	</g>
</g>
<g>
	<g>
		<rect x="71.944" y="32" width="16" height="16"/>
	</g>
</g>
<g>
	<g>
		<rect x="103.944" y="32" width="16" height="16"/>
	</g>
</g>
<g>
	<g>
		<rect x="135.944" y="32" width="16" height="16"/>
	</g>
</g>
<g>
	<g>
		<rect x="127.944" y="152" width="72" height="16"/>
	</g>
</g>
<g>
	<g>
		<rect x="303.944" y="192" width="16" height="16"/>
	</g>
</g>
<g>
	<g>
		<rect x="127.944" y="192" width="160" height="16"/>
	</g>
</g>
<g>
</g>
<g>
</g>
<g>
</g>
<g>
</g>
<g>
</g>
<g>
</g>
<g>
</g>
<g>
</g>
<g>
</g>
<g>
</g>
<g>
</g>
<g>
</g>
<g>
</g>
<g>
</g>
<g>
</g>
</svg>
