<svg id="Capa_1" enable-background="new 0 0 512 512" height="512" viewBox="0 0 512 512" width="512" xmlns="http://www.w3.org/2000/svg"><g><path d="m456.403 64.129h-400.806c-30.657 0-55.597 24.94-55.597 55.597v240.484c0 30.656 24.94 55.597 55.597 55.597h352.71c4.142 0 7.5-3.358 7.5-7.5 0-4.143-3.358-7.5-7.5-7.5h-352.71c-22.386 0-40.597-18.212-40.597-40.597v-240.484c0-22.385 18.211-40.597 40.597-40.597h400.807c22.385 0 40.597 18.212 40.597 40.597v240.484c0 22.385-18.211 40.597-40.597 40.597h-16.032c-4.142 0-7.5 3.357-7.5 7.5 0 4.142 3.358 7.5 7.5 7.5h16.032c30.656 0 55.597-24.94 55.597-55.597v-240.484c-.001-30.657-24.941-55.597-55.598-55.597z"/><path d="m408.307 432.871h-304.614c-4.142 0-7.5 3.357-7.5 7.5 0 4.142 3.358 7.5 7.5 7.5h304.613c4.142 0 7.5-3.358 7.5-7.5.001-4.142-3.357-7.5-7.499-7.5z"/><path d="m203.417 170.473c2.572-1.589 5.598-1.725 8.302-.374l16.878 8.439c3.704 1.852 8.21.351 10.062-3.354 1.853-3.705.351-8.21-3.354-10.062l-16.878-8.439c-7.349-3.674-15.908-3.289-22.896 1.03s-11.16 11.802-11.16 20.018v124.473c0 8.216 4.172 15.699 11.161 20.018 3.803 2.351 8.072 3.536 12.357 3.536 3.588 0 7.189-.831 10.538-2.505l124.473-62.237c8.024-4.012 13.008-12.077 13.008-21.048s-4.984-17.036-13.008-21.048l-75.53-37.765c-3.705-1.853-8.209-.351-10.062 3.354s-.351 8.21 3.354 10.062l75.53 37.765c2.953 1.477 4.716 4.33 4.716 7.631s-1.763 6.155-4.716 7.631l-124.473 62.237c-2.704 1.352-5.73 1.216-8.302-.374s-4.046-4.235-4.046-7.258v-124.472c0-3.023 1.475-5.669 4.046-7.258z"/></g></svg>